<svg width="25" height="25" viewBox="0 0 25 25" fill="none" xmlns="http://www.w3.org/2000/svg">
<path d="M6.26103 7.43366L6.20025 6.68613L6.26103 7.43366ZM8.32636 6.6118L8.79363 7.19846L8.32636 6.6118ZM17.7524 16.0379L18.3391 16.5051V16.5051L17.7524 16.0379ZM16.9306 18.1032L17.6781 18.164L16.9306 18.1032ZM5.02691 10.6118L5.55724 10.0815L5.02691 10.6118ZM13.7524 19.3373L13.2221 19.8677L13.7524 19.3373ZM19.6613 13.6413L19.0747 13.174L19.6613 13.6413ZM10.723 4.70291L10.2557 4.11625V4.11625L10.723 4.70291ZM12.5286 21.3141C12.9056 21.1427 13.0723 20.698 12.9008 20.3209C12.7293 19.9439 12.2847 19.7772 11.9076 19.9487L12.5286 21.3141ZM8.65816 16.6993C8.82964 16.3222 8.66299 15.8776 8.28594 15.7061C7.90888 15.5346 7.46421 15.7012 7.29274 16.0783L8.65816 16.6993ZM14.2827 18.807L5.55724 10.0815L4.49658 11.1422L13.2221 19.8677L14.2827 18.807ZM19.0747 13.174L17.1658 15.5706L18.3391 16.5051L20.248 14.1085L19.0747 13.174ZM8.79363 7.19846L11.1903 5.28956L10.2557 4.11625L7.85909 6.02515L8.79363 7.19846ZM6.32181 8.1812C7.22184 8.10801 8.08312 7.76437 8.79363 7.19846L7.85909 6.02515C7.37857 6.40788 6.79949 6.6374 6.20025 6.68613L6.32181 8.1812ZM17.1658 15.5706C16.5999 16.2811 16.2562 17.1424 16.183 18.0424L17.6781 18.164C17.7268 17.5647 17.9564 16.9857 18.3391 16.5051L17.1658 15.5706ZM5.55724 10.0815C4.93019 9.45443 5.3246 8.26228 6.32181 8.1812L6.20025 6.68613C4.01584 6.86375 2.90428 9.54985 4.49658 11.1422L5.55724 10.0815ZM13.2221 19.8677C14.8144 21.46 17.5005 20.3484 17.6781 18.164L16.183 18.0424C16.102 19.0396 14.9098 19.4341 14.2827 18.807L13.2221 19.8677ZM20.248 14.1085C22.5459 11.2235 22.3848 7.11005 19.8195 4.54475L18.7588 5.60541C20.7601 7.60668 20.919 10.8584 19.0747 13.174L20.248 14.1085ZM11.1903 5.28956C13.5058 3.44524 16.7576 3.60413 18.7588 5.60541L19.8195 4.54475C17.2542 1.97945 13.1407 1.81835 10.2557 4.11625L11.1903 5.28956ZM11.9076 19.9487C11.0705 20.3294 9.9798 20.1609 9.21289 19.394L8.15223 20.4547C9.34404 21.6465 11.1003 21.9637 12.5286 21.3141L11.9076 19.9487ZM9.21289 19.394C8.44597 18.6271 8.27747 17.5364 8.65816 16.6993L7.29274 16.0783C6.64316 17.5066 6.96041 19.2628 8.15223 20.4547L9.21289 19.394Z" fill="none"/>
<path d="M6.26103 7.43366L6.20025 6.68613L6.26103 7.43366ZM8.32636 6.6118L8.79363 7.19846L8.32636 6.6118ZM17.7524 16.0379L18.3391 16.5051V16.5051L17.7524 16.0379ZM16.9306 18.1032L17.6781 18.164L16.9306 18.1032ZM5.02691 10.6118L5.55724 10.0815L5.02691 10.6118ZM13.7524 19.3373L13.2221 19.8677L13.7524 19.3373ZM19.6613 13.6413L19.0747 13.174L19.6613 13.6413ZM10.723 4.70291L10.2557 4.11625V4.11625L10.723 4.70291ZM12.5286 21.3141C12.9056 21.1427 13.0723 20.698 12.9008 20.3209C12.7293 19.9439 12.2847 19.7772 11.9076 19.9487L12.5286 21.3141ZM8.65816 16.6993C8.82964 16.3222 8.66299 15.8776 8.28594 15.7061C7.90888 15.5346 7.46421 15.7012 7.29274 16.0783L8.65816 16.6993ZM14.2827 18.807L5.55724 10.0815L4.49658 11.1422L13.2221 19.8677L14.2827 18.807ZM19.0747 13.174L17.1658 15.5706L18.3391 16.5051L20.248 14.1085L19.0747 13.174ZM8.79363 7.19846L11.1903 5.28956L10.2557 4.11625L7.85909 6.02515L8.79363 7.19846ZM6.32181 8.1812C7.22184 8.10801 8.08312 7.76437 8.79363 7.19846L7.85909 6.02515C7.37857 6.40788 6.79949 6.6374 6.20025 6.68613L6.32181 8.1812ZM17.1658 15.5706C16.5999 16.2811 16.2562 17.1424 16.183 18.0424L17.6781 18.164C17.7268 17.5647 17.9564 16.9857 18.3391 16.5051L17.1658 15.5706ZM5.55724 10.0815C4.93019 9.45443 5.3246 8.26228 6.32181 8.1812L6.20025 6.68613C4.01584 6.86375 2.90428 9.54985 4.49658 11.1422L5.55724 10.0815ZM13.2221 19.8677C14.8144 21.46 17.5005 20.3484 17.6781 18.164L16.183 18.0424C16.102 19.0396 14.9098 19.4341 14.2827 18.807L13.2221 19.8677ZM20.248 14.1085C22.5459 11.2235 22.3848 7.11005 19.8195 4.54475L18.7588 5.60541C20.7601 7.60668 20.919 10.8584 19.0747 13.174L20.248 14.1085ZM11.1903 5.28956C13.5058 3.44524 16.7576 3.60413 18.7588 5.60541L19.8195 4.54475C17.2542 1.97945 13.1407 1.81835 10.2557 4.11625L11.1903 5.28956ZM11.9076 19.9487C11.0705 20.3294 9.9798 20.1609 9.21289 19.394L8.15223 20.4547C9.34404 21.6465 11.1003 21.9637 12.5286 21.3141L11.9076 19.9487ZM9.21289 19.394C8.44597 18.6271 8.27747 17.5364 8.65816 16.6993L7.29274 16.0783C6.64316 17.5066 6.96041 19.2628 8.15223 20.4547L9.21289 19.394Z" fill="none" fill-opacity="0.2"/>
<path d="M6.26103 7.43366L6.20025 6.68613L6.26103 7.43366ZM8.32636 6.6118L8.79363 7.19846L8.32636 6.6118ZM17.7524 16.0379L18.3391 16.5051V16.5051L17.7524 16.0379ZM16.9306 18.1032L17.6781 18.164L16.9306 18.1032ZM5.02691 10.6118L5.55724 10.0815L5.02691 10.6118ZM13.7524 19.3373L13.2221 19.8677L13.7524 19.3373ZM19.6613 13.6413L19.0747 13.174L19.6613 13.6413ZM10.723 4.70291L10.2557 4.11625V4.11625L10.723 4.70291ZM12.5286 21.3141C12.9056 21.1427 13.0723 20.698 12.9008 20.3209C12.7293 19.9439 12.2847 19.7772 11.9076 19.9487L12.5286 21.3141ZM8.65816 16.6993C8.82964 16.3222 8.66299 15.8776 8.28594 15.7061C7.90888 15.5346 7.46421 15.7012 7.29274 16.0783L8.65816 16.6993ZM14.2827 18.807L5.55724 10.0815L4.49658 11.1422L13.2221 19.8677L14.2827 18.807ZM19.0747 13.174L17.1658 15.5706L18.3391 16.5051L20.248 14.1085L19.0747 13.174ZM8.79363 7.19846L11.1903 5.28956L10.2557 4.11625L7.85909 6.02515L8.79363 7.19846ZM6.32181 8.1812C7.22184 8.10801 8.08312 7.76437 8.79363 7.19846L7.85909 6.02515C7.37857 6.40788 6.79949 6.6374 6.20025 6.68613L6.32181 8.1812ZM17.1658 15.5706C16.5999 16.2811 16.2562 17.1424 16.183 18.0424L17.6781 18.164C17.7268 17.5647 17.9564 16.9857 18.3391 16.5051L17.1658 15.5706ZM5.55724 10.0815C4.93019 9.45443 5.3246 8.26228 6.32181 8.1812L6.20025 6.68613C4.01584 6.86375 2.90428 9.54985 4.49658 11.1422L5.55724 10.0815ZM13.2221 19.8677C14.8144 21.46 17.5005 20.3484 17.6781 18.164L16.183 18.0424C16.102 19.0396 14.9098 19.4341 14.2827 18.807L13.2221 19.8677ZM20.248 14.1085C22.5459 11.2235 22.3848 7.11005 19.8195 4.54475L18.7588 5.60541C20.7601 7.60668 20.919 10.8584 19.0747 13.174L20.248 14.1085ZM11.1903 5.28956C13.5058 3.44524 16.7576 3.60413 18.7588 5.60541L19.8195 4.54475C17.2542 1.97945 13.1407 1.81835 10.2557 4.11625L11.1903 5.28956ZM11.9076 19.9487C11.0705 20.3294 9.9798 20.1609 9.21289 19.394L8.15223 20.4547C9.34404 21.6465 11.1003 21.9637 12.5286 21.3141L11.9076 19.9487ZM9.21289 19.394C8.44597 18.6271 8.27747 17.5364 8.65816 16.6993L7.29274 16.0783C6.64316 17.5066 6.96041 19.2628 8.15223 20.4547L9.21289 19.394Z" fill="none" fill-opacity="0.2"/>
<path d="M6.26103 7.43366L6.20025 6.68613L6.26103 7.43366ZM8.32636 6.6118L8.79363 7.19846L8.32636 6.6118ZM17.7524 16.0379L18.3391 16.5051V16.5051L17.7524 16.0379ZM16.9306 18.1032L17.6781 18.164L16.9306 18.1032ZM5.02691 10.6118L5.55724 10.0815L5.02691 10.6118ZM13.7524 19.3373L13.2221 19.8677L13.7524 19.3373ZM19.6613 13.6413L19.0747 13.174L19.6613 13.6413ZM10.723 4.70291L10.2557 4.11625V4.11625L10.723 4.70291ZM12.5286 21.3141C12.9056 21.1427 13.0723 20.698 12.9008 20.3209C12.7293 19.9439 12.2847 19.7772 11.9076 19.9487L12.5286 21.3141ZM8.65816 16.6993C8.82964 16.3222 8.66299 15.8776 8.28594 15.7061C7.90888 15.5346 7.46421 15.7012 7.29274 16.0783L8.65816 16.6993ZM14.2827 18.807L5.55724 10.0815L4.49658 11.1422L13.2221 19.8677L14.2827 18.807ZM19.0747 13.174L17.1658 15.5706L18.3391 16.5051L20.248 14.1085L19.0747 13.174ZM8.79363 7.19846L11.1903 5.28956L10.2557 4.11625L7.85909 6.02515L8.79363 7.19846ZM6.32181 8.1812C7.22184 8.10801 8.08312 7.76437 8.79363 7.19846L7.85909 6.02515C7.37857 6.40788 6.79949 6.6374 6.20025 6.68613L6.32181 8.1812ZM17.1658 15.5706C16.5999 16.2811 16.2562 17.1424 16.183 18.0424L17.6781 18.164C17.7268 17.5647 17.9564 16.9857 18.3391 16.5051L17.1658 15.5706ZM5.55724 10.0815C4.93019 9.45443 5.3246 8.26228 6.32181 8.1812L6.20025 6.68613C4.01584 6.86375 2.90428 9.54985 4.49658 11.1422L5.55724 10.0815ZM13.2221 19.8677C14.8144 21.46 17.5005 20.3484 17.6781 18.164L16.183 18.0424C16.102 19.0396 14.9098 19.4341 14.2827 18.807L13.2221 19.8677ZM20.248 14.1085C22.5459 11.2235 22.3848 7.11005 19.8195 4.54475L18.7588 5.60541C20.7601 7.60668 20.919 10.8584 19.0747 13.174L20.248 14.1085ZM11.1903 5.28956C13.5058 3.44524 16.7576 3.60413 18.7588 5.60541L19.8195 4.54475C17.2542 1.97945 13.1407 1.81835 10.2557 4.11625L11.1903 5.28956ZM11.9076 19.9487C11.0705 20.3294 9.9798 20.1609 9.21289 19.394L8.15223 20.4547C9.34404 21.6465 11.1003 21.9637 12.5286 21.3141L11.9076 19.9487ZM9.21289 19.394C8.44597 18.6271 8.27747 17.5364 8.65816 16.6993L7.29274 16.0783C6.64316 17.5066 6.96041 19.2628 8.15223 20.4547L9.21289 19.394Z" fill="none" fill-opacity="0.2"/>
</svg>
