<svg xmlns="http://www.w3.org/2000/svg" width="15" height="16" viewBox="0 0 15 16" fill="none">
  <path fill-rule="evenodd" clip-rule="evenodd" d="M4.6 0.578313C4.6 0.25892 4.33137 0 4 0C3.66863 0 3.4 0.25892 3.4 0.578313V1.73494H3.2C1.43269 1.73494 0 3.11584 0 4.81928V5.39759H14.4V4.81928C14.4 3.11584 12.9673 1.73494 11.2 1.73494H11V0.578313C11 0.25892 10.7314 0 10.4 0C10.0686 0 9.8 0.25892 9.8 0.578313V1.73494H4.6V0.578313ZM0 6.55422H14.4V12.9157C14.4 14.6191 12.9673 16 11.2 16H3.2C1.43269 16 0 14.6191 0 12.9157V6.55422Z" fill="#E0E0E0"/>
</svg>