<svg width="16" height="16" viewBox="0 0 16 16" fill="none" xmlns="http://www.w3.org/2000/svg">
<g id="Icon16/Image">
<path id="Union" fill-rule="evenodd" clip-rule="evenodd" d="M6.34536 1.7998C6.06188 1.7998 5.79171 1.92013 5.60207 2.13084L4.22 3.66647H3C1.89543 3.66647 1 4.5619 1 5.66647V10.9998C1 12.1044 1.89543 12.9998 3 12.9998H13C14.1046 12.9998 15 12.1044 15 10.9998V5.66647C15 4.5619 14.1046 3.66647 13 3.66647H11.78L10.3979 2.13084C10.2083 1.92013 9.93812 1.7998 9.65464 1.7998H6.34536ZM10.3332 7.79981C10.3332 9.08847 9.2885 10.1331 7.99984 10.1331C6.71117 10.1331 5.6665 9.08847 5.6665 7.79981C5.6665 6.51114 6.71117 5.46647 7.99984 5.46647C9.2885 5.46647 10.3332 6.51114 10.3332 7.79981Z" fill="#FAFAFA"/>
</g>
</svg>
