<svg width="375" height="56" viewBox="0 0 375 56" fill="none" xmlns="http://www.w3.org/2000/svg">
<rect width="375" height="56" fill="white"/>
<path d="M29.0001 27.9999L30.7529 29.4022C31.1708 29.7365 31.7778 29.6826 32.1302 29.2798L35.0001 25.9999M25.3777 20.9432L30.3755 18.722C31.4098 18.2623 32.5904 18.2623 33.6246 18.722L38.6026 20.9344C40.0583 21.5814 41.0139 23.0355 40.9119 24.6252C40.5206 30.723 38.7773 33.4796 34.0647 36.6776C32.821 37.5215 31.1805 37.5195 29.9359 36.6769C25.2378 33.4962 23.4297 30.7781 23.0701 24.6038C22.9781 23.0245 23.9321 21.5857 25.3777 20.9432Z" stroke="#424242" stroke-width="1.5" stroke-linecap="round" stroke-linejoin="round"/>
<path d="M68.8122 26.3702C68.7238 25.8987 68.5396 25.4917 68.2597 25.1492C67.9834 24.8066 67.639 24.547 67.2265 24.3702C66.8177 24.1897 66.372 24.0994 65.8895 24.0994C65.2339 24.0994 64.6483 24.2652 64.1326 24.5967C63.6206 24.9245 63.2192 25.4088 62.9282 26.0497C62.6372 26.6869 62.4917 27.4512 62.4917 28.3425C62.4917 29.2376 62.6372 30.0055 62.9282 30.6464C63.2192 31.2836 63.6206 31.7661 64.1326 32.0939C64.6483 32.4217 65.2339 32.5856 65.8895 32.5856C66.3683 32.5856 66.8103 32.4991 67.2155 32.326C67.6243 32.1492 67.9687 31.8932 68.2486 31.558C68.5285 31.2228 68.7164 30.8214 68.8122 30.3536H70.547C70.4291 31.0976 70.1565 31.7569 69.7293 32.3315C69.3057 32.9061 68.7606 33.3536 68.0939 33.674C67.4309 33.9945 66.6906 34.1547 65.8729 34.1547C64.8895 34.1547 64.0129 33.9208 63.2431 33.453C62.4733 32.9816 61.8711 32.3076 61.4365 31.4309C61.0018 30.5543 60.7845 29.5249 60.7845 28.3425C60.7845 27.1602 61.0018 26.1308 61.4365 25.2541C61.8748 24.3775 62.4788 23.7053 63.2486 23.2376C64.0184 22.7661 64.8932 22.5304 65.8729 22.5304C66.6722 22.5304 67.4033 22.6832 68.0663 22.9889C68.7293 23.2947 69.2762 23.7366 69.7072 24.3149C70.1418 24.8895 70.4217 25.5746 70.547 26.3702H68.8122ZM73.9351 34H72.2666V22.6851H73.913V26.9006H74.018C74.2242 26.4217 74.5336 26.0534 74.9461 25.7956C75.3623 25.5341 75.8909 25.4033 76.5318 25.4033C77.1211 25.4033 77.6331 25.5249 78.0677 25.768C78.5023 26.0074 78.8393 26.3665 79.0787 26.8453C79.3181 27.3241 79.4378 27.9098 79.4378 28.6022V34H77.7693V28.8066C77.7693 28.1878 77.6091 27.7072 77.2887 27.3646C76.9719 27.0184 76.5299 26.8453 75.9627 26.8453C75.5686 26.8453 75.2187 26.93 74.913 27.0994C74.6073 27.2652 74.3679 27.5083 74.1948 27.8287C74.0216 28.1455 73.9351 28.5249 73.9351 28.9669V34ZM84.7911 25.4033C85.3288 25.4033 85.8463 25.4862 86.3436 25.6519C86.8408 25.8177 87.2607 26.1215 87.6032 26.5635C87.9495 27.0018 88.1226 27.6022 88.1226 28.3646V34H86.4983V32.8398H86.432C86.3141 33.0755 86.1447 33.2947 85.9237 33.4972C85.7064 33.6998 85.4283 33.8656 85.0894 33.9945C84.7543 34.1234 84.3657 34.1878 83.9237 34.1878C83.3786 34.1878 82.8887 34.0866 82.4541 33.884C82.0231 33.6814 81.6824 33.3849 81.432 32.9945C81.1815 32.6041 81.0563 32.14 81.0563 31.6022C81.0563 30.7293 81.3528 30.105 81.9458 29.7293C82.5425 29.3536 83.3031 29.1326 84.2276 29.0663C84.5885 29.0442 84.9808 29.0221 85.4044 29C85.8279 28.9779 86.1797 28.9613 86.4596 28.9503V28.2597C86.4596 27.7772 86.3123 27.4052 86.0176 27.1436C85.723 26.8821 85.2939 26.7514 84.7303 26.7514C84.2552 26.7514 83.8666 26.849 83.5646 27.0442C83.2662 27.2394 83.0729 27.5009 82.9845 27.8287H81.3215C81.373 27.361 81.548 26.9429 81.8463 26.5746C82.1447 26.2063 82.5462 25.919 83.0508 25.7127C83.559 25.5064 84.1392 25.4033 84.7911 25.4033ZM84.2939 32.8564C84.7322 32.8564 85.1152 32.768 85.443 32.5912C85.7745 32.4144 86.0268 32.1805 86.1999 31.8895C86.3767 31.5948 86.4651 31.2781 86.4651 30.9392V30.1657C86.1852 30.1805 85.5185 30.2247 84.4651 30.2983C83.9016 30.3389 83.4651 30.4696 83.1557 30.6906C82.8463 30.9079 82.6916 31.2192 82.6916 31.6243C82.6916 32.0221 82.8371 32.3278 83.1281 32.5414C83.4228 32.7514 83.8113 32.8564 84.2939 32.8564ZM91.8101 34H90.1416V25.5138H91.7438V26.9006H91.8488C92.0513 26.4328 92.3644 26.0663 92.788 25.8011C93.2116 25.5359 93.7327 25.4033 94.3515 25.4033C94.9372 25.4033 95.4454 25.5267 95.8764 25.7735C96.311 26.0166 96.6462 26.3775 96.8819 26.8564C97.1213 27.3352 97.241 27.9171 97.241 28.6022V34H95.5725V28.8066C95.5725 28.4015 95.5007 28.0516 95.357 27.7569C95.2171 27.4622 95.0127 27.2376 94.7438 27.0829C94.4749 26.9245 94.1545 26.8453 93.7825 26.8453C93.3957 26.8453 93.0532 26.93 92.7548 27.0994C92.4602 27.2652 92.2281 27.5083 92.0587 27.8287C91.893 28.1455 91.8101 28.5249 91.8101 28.9669V34ZM102.836 37.3591C102.121 37.3591 101.493 37.2578 100.952 37.0552C100.414 36.8564 99.9866 36.5654 99.6699 36.1823C99.3568 35.8029 99.1763 35.3499 99.1285 34.8232H100.83C100.907 35.221 101.121 35.5193 101.471 35.7182C101.825 35.9208 102.285 36.0221 102.852 36.0221C103.537 36.0221 104.068 35.8656 104.443 35.5525C104.823 35.2431 105.012 34.7661 105.012 34.1215V32.453H104.902C104.692 32.8435 104.401 33.1786 104.029 33.4586C103.657 33.7348 103.128 33.8729 102.443 33.8729C101.766 33.8729 101.158 33.709 100.62 33.3812C100.086 33.0534 99.6644 32.5727 99.355 31.9392C99.0456 31.3057 98.8909 30.5488 98.8909 29.6685C98.8909 28.7882 99.0437 28.0276 99.3494 27.3867C99.6552 26.7422 100.077 26.2505 100.615 25.9116C101.156 25.5727 101.771 25.4033 102.46 25.4033C102.942 25.4033 103.348 25.4843 103.675 25.6464C104.003 25.8048 104.256 25.9871 104.432 26.1934C104.609 26.3996 104.771 26.6317 104.919 26.8895H105.029V25.5138H106.659V34.1823C106.659 34.8858 106.495 35.4751 106.167 35.9503C105.839 36.4254 105.388 36.779 104.814 37.011C104.243 37.2431 103.583 37.3591 102.836 37.3591ZM102.819 32.4972C103.287 32.4972 103.686 32.3867 104.018 32.1657C104.349 31.9448 104.6 31.6243 104.769 31.2044C104.942 30.7845 105.029 30.2836 105.029 29.7017C105.029 29.1271 104.942 28.6243 104.769 28.1934C104.6 27.7587 104.349 27.4217 104.018 27.1823C103.686 26.9429 103.287 26.8232 102.819 26.8232C102.337 26.8232 101.928 26.9484 101.593 27.1989C101.261 27.4457 101.011 27.7864 100.841 28.221C100.672 28.6556 100.587 29.1492 100.587 29.7017C100.587 30.2615 100.672 30.7514 100.841 31.1713C101.011 31.5912 101.263 31.9171 101.598 32.1492C101.933 32.3812 102.34 32.4972 102.819 32.4972ZM116.003 30.2597H109.965C109.979 30.7901 110.088 31.2468 110.291 31.6298C110.493 32.0129 110.771 32.3039 111.125 32.5028C111.482 32.7017 111.895 32.8011 112.362 32.8011C112.812 32.8011 113.193 32.7164 113.506 32.547C113.819 32.3738 114.051 32.1473 114.202 31.8674H115.893C115.768 32.3315 115.543 32.7366 115.219 33.0829C114.898 33.4291 114.493 33.698 114.003 33.8895C113.513 34.0773 112.963 34.1713 112.351 34.1713C111.526 34.1713 110.808 33.9926 110.197 33.6354C109.589 33.2744 109.121 32.7661 108.793 32.1105C108.469 31.4512 108.307 30.6851 108.307 29.8122C108.307 28.9503 108.469 28.186 108.793 27.5193C109.121 26.8527 109.582 26.3333 110.175 25.9613C110.768 25.5893 111.453 25.4033 112.23 25.4033C112.911 25.4033 113.536 25.5525 114.103 25.8508C114.674 26.1455 115.132 26.6114 115.479 27.2486C115.828 27.8858 116.003 28.6924 116.003 29.6685V30.2597ZM114.362 29.011C114.362 28.5838 114.274 28.2007 114.097 27.8619C113.92 27.523 113.672 27.2578 113.351 27.0663C113.035 26.8711 112.668 26.7735 112.252 26.7735C111.821 26.7735 111.436 26.8748 111.097 27.0773C110.762 27.2799 110.497 27.5525 110.302 27.895C110.106 28.2376 109.996 28.6096 109.97 29.011H114.362ZM125.74 22.6851C126.591 22.6851 127.309 22.8435 127.895 23.1602C128.484 23.4733 128.924 23.9061 129.215 24.4586C129.51 25.011 129.657 25.6427 129.657 26.3536C129.657 27.0645 129.51 27.698 129.215 28.2541C128.921 28.8066 128.479 29.2413 127.889 29.558C127.304 29.8748 126.586 30.0331 125.735 30.0331H123.414V34H121.696V22.6851H125.74ZM125.563 28.5691C126.363 28.5691 126.956 28.3683 127.342 27.9669C127.733 27.5654 127.928 27.0276 127.928 26.3536C127.928 25.6796 127.733 25.1455 127.342 24.7514C126.956 24.3573 126.361 24.1602 125.558 24.1602H123.414V28.5691H125.563ZM134.588 25.4033C135.126 25.4033 135.643 25.4862 136.14 25.6519C136.638 25.8177 137.058 26.1215 137.4 26.5635C137.746 27.0018 137.919 27.6022 137.919 28.3646V34H136.295V32.8398H136.229C136.111 33.0755 135.942 33.2947 135.721 33.4972C135.503 33.6998 135.225 33.8656 134.886 33.9945C134.551 34.1234 134.163 34.1878 133.721 34.1878C133.175 34.1878 132.686 34.0866 132.251 33.884C131.82 33.6814 131.479 33.3849 131.229 32.9945C130.978 32.6041 130.853 32.14 130.853 31.6022C130.853 30.7293 131.15 30.105 131.743 29.7293C132.339 29.3536 133.1 29.1326 134.024 29.0663C134.385 29.0442 134.778 29.0221 135.201 29C135.625 28.9779 135.977 28.9613 136.256 28.9503V28.2597C136.256 27.7772 136.109 27.4052 135.814 27.1436C135.52 26.8821 135.091 26.7514 134.527 26.7514C134.052 26.7514 133.663 26.849 133.361 27.0442C133.063 27.2394 132.87 27.5009 132.781 27.8287H131.118C131.17 27.361 131.345 26.9429 131.643 26.5746C131.942 26.2063 132.343 25.919 132.848 25.7127C133.356 25.5064 133.936 25.4033 134.588 25.4033ZM134.091 32.8564C134.529 32.8564 134.912 32.768 135.24 32.5912C135.571 32.4144 135.824 32.1805 135.997 31.8895C136.174 31.5948 136.262 31.2781 136.262 30.9392V30.1657C135.982 30.1805 135.315 30.2247 134.262 30.2983C133.698 30.3389 133.262 30.4696 132.953 30.6906C132.643 30.9079 132.489 31.2192 132.489 31.6243C132.489 32.0221 132.634 32.3278 132.925 32.5414C133.22 32.7514 133.608 32.8564 134.091 32.8564ZM144.701 27.8287C144.62 27.4825 144.443 27.2118 144.17 27.0166C143.902 26.8177 143.543 26.7182 143.093 26.7182C142.784 26.7182 142.504 26.768 142.253 26.8674C142.003 26.9669 141.808 27.105 141.668 27.2818C141.531 27.4549 141.463 27.6464 141.463 27.8564C141.46 28.1105 141.565 28.3278 141.778 28.5083C141.996 28.6851 142.333 28.8269 142.789 28.9337L144.148 29.2431C144.926 29.4236 145.506 29.7035 145.889 30.0829C146.272 30.4586 146.463 30.9448 146.463 31.5414C146.463 32.0534 146.323 32.5083 146.043 32.9061C145.767 33.3039 145.368 33.6151 144.845 33.8398C144.322 34.0608 143.705 34.1713 142.994 34.1713C141.984 34.1713 141.183 33.9558 140.59 33.5249C140.001 33.0939 139.653 32.4788 139.546 31.6796H141.253C141.397 32.4494 141.972 32.8343 142.977 32.8343C143.334 32.8343 143.647 32.7882 143.916 32.6961C144.185 32.6004 144.391 32.4659 144.535 32.2928C144.682 32.116 144.756 31.9098 144.756 31.674C144.756 31.3978 144.649 31.1713 144.436 30.9945C144.226 30.814 143.896 30.6722 143.447 30.5691L142.121 30.2762C141.362 30.1105 140.784 29.8287 140.386 29.4309C139.992 29.0331 139.795 28.5396 139.795 27.9503C139.795 27.453 139.931 27.011 140.204 26.6243C140.48 26.2376 140.867 25.9374 141.364 25.7238C141.861 25.5101 142.434 25.4033 143.082 25.4033C143.701 25.4033 144.242 25.5046 144.706 25.7072C145.174 25.9061 145.544 26.1878 145.817 26.5525C146.089 26.9171 146.252 27.3425 146.303 27.8287H144.701ZM152.873 27.8287C152.792 27.4825 152.615 27.2118 152.342 27.0166C152.073 26.8177 151.714 26.7182 151.265 26.7182C150.956 26.7182 150.676 26.768 150.425 26.8674C150.175 26.9669 149.98 27.105 149.84 27.2818C149.703 27.4549 149.635 27.6464 149.635 27.8564C149.632 28.1105 149.736 28.3278 149.95 28.5083C150.167 28.6851 150.504 28.8269 150.961 28.9337L152.32 29.2431C153.097 29.4236 153.678 29.7035 154.061 30.0829C154.444 30.4586 154.635 30.9448 154.635 31.5414C154.635 32.0534 154.495 32.5083 154.215 32.9061C153.939 33.3039 153.539 33.6151 153.016 33.8398C152.493 34.0608 151.876 34.1713 151.166 34.1713C150.156 34.1713 149.355 33.9558 148.762 33.5249C148.173 33.0939 147.825 32.4788 147.718 31.6796H149.425C149.569 32.4494 150.143 32.8343 151.149 32.8343C151.506 32.8343 151.819 32.7882 152.088 32.6961C152.357 32.6004 152.563 32.4659 152.707 32.2928C152.854 32.116 152.928 31.9098 152.928 31.674C152.928 31.3978 152.821 31.1713 152.608 30.9945C152.398 30.814 152.068 30.6722 151.619 30.5691L150.293 30.2762C149.534 30.1105 148.956 29.8287 148.558 29.4309C148.164 29.0331 147.967 28.5396 147.967 27.9503C147.967 27.453 148.103 27.011 148.376 26.6243C148.652 26.2376 149.039 25.9374 149.536 25.7238C150.033 25.5101 150.606 25.4033 151.254 25.4033C151.873 25.4033 152.414 25.5046 152.878 25.7072C153.346 25.9061 153.716 26.1878 153.989 26.5525C154.261 26.9171 154.423 27.3425 154.475 27.8287H152.873ZM159.824 34H158.116L155.625 25.5138H157.348L159 31.7348H159.089L160.746 25.5138H162.47L164.116 31.7072H164.199L165.846 25.5138H167.569L165.078 34H163.382L161.658 27.8895H161.536L159.824 34ZM172.258 34.1713C171.467 34.1713 170.77 33.9908 170.17 33.6298C169.573 33.2652 169.111 32.7514 168.783 32.0884C168.456 31.4254 168.292 30.6611 168.292 29.7956C168.292 28.9227 168.456 28.1547 168.783 27.4917C169.111 26.8287 169.573 26.3149 170.17 25.9503C170.77 25.5856 171.467 25.4033 172.258 25.4033C173.047 25.4033 173.739 25.5856 174.336 25.9503C174.936 26.3149 175.398 26.8287 175.723 27.4917C176.05 28.1547 176.214 28.9227 176.214 29.7956C176.214 30.6611 176.05 31.4254 175.723 32.0884C175.398 32.7514 174.936 33.2652 174.336 33.6298C173.739 33.9908 173.047 34.1713 172.258 34.1713ZM172.264 32.779C172.758 32.779 173.174 32.6464 173.513 32.3812C173.855 32.116 174.111 31.7569 174.281 31.3039C174.45 30.8508 174.535 30.3462 174.535 29.7901C174.535 29.2339 174.45 28.7293 174.281 28.2762C174.111 27.8232 173.855 27.4622 173.513 27.1934C173.174 26.9245 172.758 26.7901 172.264 26.7901C171.767 26.7901 171.345 26.9245 170.999 27.1934C170.656 27.4622 170.398 27.8232 170.225 28.2762C170.056 28.7293 169.971 29.2339 169.971 29.7901C169.971 30.3462 170.056 30.8508 170.225 31.3039C170.398 31.7569 170.656 32.116 170.999 32.3812C171.345 32.6464 171.767 32.779 172.264 32.779ZM177.86 34V25.5138H179.474V26.8674H179.562C179.665 26.5654 179.822 26.3039 180.032 26.0829C180.245 25.8582 180.496 25.6869 180.783 25.5691C181.074 25.4475 181.383 25.3867 181.711 25.3867C181.829 25.3867 181.956 25.3904 182.092 25.3978C182.229 25.4052 182.339 25.4144 182.424 25.4254V27.0166C182.332 26.9945 182.201 26.9724 182.032 26.9503C181.866 26.9282 181.707 26.9171 181.556 26.9171C181.173 26.9171 180.827 27 180.518 27.1657C180.208 27.3278 179.965 27.5543 179.789 27.8453C179.615 28.1363 179.529 28.4641 179.529 28.8287V34H177.86ZM186.584 34.1657C185.899 34.1657 185.287 33.989 184.75 33.6354C184.212 33.2818 183.79 32.7735 183.485 32.1105C183.183 31.4475 183.032 30.6685 183.032 29.7735C183.032 28.8748 183.184 28.0958 183.49 27.4365C183.796 26.7772 184.219 26.2744 184.761 25.9282C185.302 25.5783 185.915 25.4033 186.601 25.4033C187.083 25.4033 187.486 25.4843 187.811 25.6464C188.138 25.8048 188.389 25.9871 188.562 26.1934C188.735 26.3996 188.895 26.6317 189.043 26.8895H189.131V22.6851H190.799V34H189.17V32.6796H189.043C188.899 32.9337 188.735 33.1657 188.551 33.3757C188.367 33.5856 188.111 33.7698 187.783 33.9282C187.459 34.0866 187.059 34.1657 186.584 34.1657ZM186.96 32.7459C187.424 32.7459 187.822 32.6225 188.153 32.3757C188.485 32.1252 188.737 31.7753 188.91 31.326C189.083 30.8729 189.17 30.3499 189.17 29.7569C189.17 29.1639 189.083 28.6483 188.91 28.2099C188.741 27.768 188.49 27.4273 188.159 27.1878C187.827 26.9448 187.427 26.8232 186.96 26.8232C186.477 26.8232 186.068 26.9484 185.733 27.1989C185.398 27.4494 185.146 27.7956 184.976 28.2376C184.811 28.6796 184.728 29.186 184.728 29.7569C184.728 30.3315 184.812 30.8453 184.982 31.2983C185.155 31.7477 185.409 32.1013 185.744 32.3591C186.079 32.6169 186.485 32.7459 186.96 32.7459Z" fill="#424242"/>
</svg>
