<svg width="22" height="22" viewBox="0 0 22 22" fill="none" xmlns="http://www.w3.org/2000/svg">
<path fill-rule="evenodd" clip-rule="evenodd" d="M18.875 17.4958V21.5H10.625C4.835 21.5 0.125 16.79 0.125 11C0.125 5.21 4.835 0.5 10.625 0.5C16.415 0.5 21.125 5.21 21.125 11C21.125 13.3565 20.3285 15.6515 18.875 17.4958ZM10.625 2C5.66225 2 1.625 6.03725 1.625 11C1.625 15.9627 5.66225 20 10.625 20H17.375V16.9595L17.5483 16.7502C18.8878 15.1407 19.625 13.0985 19.625 11C19.625 6.03725 15.5877 2 10.625 2ZM5.375 11C5.375 10.3783 5.87825 9.875 6.5 9.875C7.121 9.875 7.625 10.3783 7.625 11C7.625 11.6217 7.121 12.125 6.5 12.125C5.87825 12.125 5.375 11.6217 5.375 11ZM9.5 11C9.5 10.3783 10.004 9.875 10.625 9.875C11.2467 9.875 11.75 10.3783 11.75 11C11.75 11.6217 11.2467 12.125 10.625 12.125C10.004 12.125 9.5 11.6217 9.5 11ZM14.75 9.875C14.129 9.875 13.625 10.3783 13.625 11C13.625 11.6217 14.129 12.125 14.75 12.125C15.3717 12.125 15.875 11.6217 15.875 11C15.875 10.3783 15.3717 9.875 14.75 9.875Z" fill="#BDBDBD"/>
</svg>
