<svg width="200" height="200" viewBox="0 0 200 200" fill="none" xmlns="http://www.w3.org/2000/svg">
<g id="Frame 1988" clip-path="url(#clip0_3035_10869)">
<rect width="200" height="200" fill="white"/>
<path id="Vector 196" d="M56.4008 145.684C25.8999 149.684 16.5088 135.51 13.4 127.684C0.290776 94.6843 53.3844 82.4591 56.4008 96.1843C59.4172 109.91 28.121 104.196 26.3999 79.4744C25.2512 62.9744 47.3286 45.9113 61.3999 44.4744" stroke="black" stroke-width="1.5" stroke-linecap="round" stroke-dasharray="3 3"/>
<path id="Rectangle 11365" d="M100.186 51.7243C100.081 50.2534 101.061 48.9241 102.497 48.5889L112.135 46.339C113.928 45.9206 115.671 47.1998 115.809 49.035L121.143 119.832C121.268 121.488 120.023 122.931 118.366 123.049L108.345 123.766C106.692 123.884 105.256 122.64 105.138 120.988L100.186 51.7243Z" fill="#BDBDBD"/>
<rect id="Rectangle 11366" x="77.9966" y="100.188" width="40.6233" height="70.2765" rx="2" transform="rotate(-95.7883 77.9966 100.188)" fill="#FE75B9"/>
<path id="Rectangle 11370" d="M122.9 93.4339L77.9864 97.9868C76.8874 98.0982 75.9063 97.2976 75.7949 96.1987L72.1013 59.7621C71.9899 58.6632 72.7904 57.682 73.8894 57.5706L139.828 50.8864C140.927 50.775 141.908 51.5755 142.019 52.6745L145.713 89.111C145.824 90.21 145.024 91.1912 143.925 91.3026L137.9 91.9133" stroke="black" stroke-linecap="round"/>
<g id="Ellipse 39">
<ellipse cx="99.8999" cy="170.185" rx="62" ry="14.5" fill="#424242"/>
<ellipse cx="99.8999" cy="170.185" rx="62" ry="14.5" fill="black" fill-opacity="0.2"/>
<ellipse cx="99.8999" cy="170.185" rx="62" ry="14.5" fill="black" fill-opacity="0.2"/>
<ellipse cx="99.8999" cy="170.185" rx="62" ry="14.5" fill="black" fill-opacity="0.2"/>
</g>
<path id="Ellipse 40" d="M161.9 163.185C153.4 157.185 129.4 151.685 99.8999 151.685C70.3999 151.685 47.3999 157.685 38.3999 163.185" stroke="black" stroke-width="1.5" stroke-linecap="round"/>
<path id="Vector" d="M140.9 122.032C140.9 118.432 134.945 115.828 114.596 115.822C114.546 115.822 114.496 115.802 114.459 115.769C103.739 106.091 97.0828 106.912 92.1131 109.062C76.7064 115.727 81.658 153.041 81.658 183.685H116.504V163.332C135.578 159.778 141.9 153.82 141.9 150.873C141.9 147.591 137.498 144.682 134.706 143.848C134.509 143.789 134.493 143.489 134.685 143.419C137.476 142.408 141.9 139.475 141.9 136.185C141.9 132.813 137.255 130.366 134.481 129.414C134.304 129.354 134.298 129.115 134.472 129.048C137.245 127.993 140.9 125.407 140.9 122.032Z" fill="white"/>
<path id="Vector 202" d="M116.9 163.685V182.685" stroke="black" stroke-width="1.5" stroke-linecap="round"/>
<g id="Vector 150">
<path d="M124.9 145.684C123.498 145.284 121.277 144.723 119.117 144.023C121.389 143.203 123.727 142.575 124.9 142.184C128.4 141.018 128.4 146.684 124.9 145.684Z" fill="white"/>
<path d="M127.288 153.061C124.312 152.735 113.288 150.973 113.288 148.112C113.288 145.251 122.195 143.086 124.9 142.184C128.4 141.018 128.4 146.684 124.9 145.684C121.4 144.684 112.788 142.684 112.788 140.014C112.788 138.215 115.788 137.315 118.788 136.865" stroke="#212121" stroke-width="1.5" stroke-linecap="round"/>
</g>
<path id="Vector 201" d="M115.064 115.685C135.824 115.685 140.9 119.113 140.9 122.685C140.9 125.992 137.125 127.891 134.422 128.863C134.236 128.929 134.24 129.209 134.428 129.272C137.256 130.237 141.9 132.909 141.9 136.22C141.9 139.441 137.507 142.057 134.664 143.085C134.462 143.158 134.477 143.513 134.682 143.575C137.525 144.439 141.9 147.292 141.9 150.506C141.9 154.077 133.799 163.006 101.9 165.685" stroke="black" stroke-width="1.5" stroke-linecap="round"/>
<path id="Vector 148" d="M81.2879 182.45C81.2879 163.684 76.3151 115.626 91.7878 108.972C110.619 100.874 128.288 132.816 123.788 136.162C119.288 139.507 107.4 131.284 105.4 127.685C103.4 124.085 107.9 121.585 109.4 125.185C110.9 128.784 110.4 138.685 102.9 144.685" stroke="#212121" stroke-width="1.5" stroke-linecap="round"/>
<g id="Mask group">
<mask id="mask0_3035_10869" style="mask-type:alpha" maskUnits="userSpaceOnUse" x="69" y="175" width="60" height="19">
<path id="Polygon 7" d="M127.638 184.134C128.586 182.883 127.79 181.078 126.227 180.935L72.0321 175.971C70.5739 175.838 69.4713 177.265 69.9686 178.642L74.9235 192.364C75.2097 193.156 75.9619 193.685 76.8046 193.685L119.406 193.684C120.032 193.684 120.622 193.391 121 192.892L127.638 184.134Z" fill="#FF8E00"/>
</mask>
<g mask="url(#mask0_3035_10869)">
<ellipse id="Ellipse 38" cx="99.8994" cy="170.185" rx="62" ry="14.5" fill="#FF8E00"/>
</g>
</g>
<rect id="Rectangle 11368" x="123.92" y="81.3691" width="6" height="30" transform="rotate(129.28 123.92 81.3691)" fill="white"/>
<rect id="Rectangle 11369" x="103.236" y="87.7051" width="6" height="30" transform="rotate(-140.72 103.236 87.7051)" fill="white"/>
<path id="Star 1" d="M65.8078 19.451C65.7148 18.4867 66.9101 17.9669 67.552 18.6923L70.3273 21.8284C70.6144 22.1529 71.0778 22.2555 71.475 22.0827L75.3152 20.4124C76.2036 20.0261 77.0674 21.0022 76.5758 21.8369L74.4508 25.4454C74.2309 25.8187 74.2765 26.2911 74.5636 26.6156L77.3388 29.7517C77.9808 30.4771 77.3194 31.6003 76.3736 31.3907L72.285 30.4848C71.8621 30.3911 71.4268 30.5804 71.207 30.9537L69.082 34.5622C68.5904 35.3969 67.3179 35.115 67.2249 34.1507L66.8231 29.9823C66.7815 29.5511 66.467 29.1957 66.044 29.1019L61.9554 28.196C61.0096 27.9864 60.8846 26.6891 61.7729 26.3027L65.6131 24.6324C66.0104 24.4596 66.2512 24.0506 66.2096 23.6194L65.8078 19.451Z" fill="#FF8E00"/>
</g>
<defs>
<clipPath id="clip0_3035_10869">
<rect width="200" height="200" fill="white"/>
</clipPath>
</defs>
</svg>
