<svg width="24" height="24" viewBox="0 0 24 24" fill="none" xmlns="http://www.w3.org/2000/svg">
<path fill-rule="evenodd" clip-rule="evenodd" d="M11.9999 8C9.79081 8 7.99995 9.79086 7.99995 12C7.99995 14.2091 9.79081 16 11.9999 16C14.2091 16 15.9999 14.2091 15.9999 12C15.9999 9.79086 14.2091 8 11.9999 8ZM9.99995 12C9.99995 10.8954 10.8954 10 11.9999 10C13.1045 10 13.9999 10.8954 13.9999 12C13.9999 13.1046 13.1045 14 11.9999 14C10.8954 14 9.99995 13.1046 9.99995 12Z" fill="#2D3648"/>
<path fill-rule="evenodd" clip-rule="evenodd" d="M23.894 11.5521C23.8942 11.5525 23.8944 11.5528 22.9999 12C23.8944 12.4472 23.8942 12.4475 23.894 12.4479L23.8924 12.4511L23.889 12.458L23.8776 12.4802C23.8681 12.4987 23.8546 12.5247 23.8372 12.5576C23.8024 12.6233 23.7519 12.7168 23.686 12.834C23.5542 13.0684 23.3601 13.3985 23.1056 13.7925C22.5979 14.5787 21.8431 15.6294 20.8545 16.6839C18.8955 18.7736 15.8995 21 11.9999 21C8.10044 21 5.10443 18.7736 3.14541 16.6839C2.15678 15.6294 1.40201 14.5787 0.894282 13.7925C0.639796 13.3985 0.445738 13.0684 0.313918 12.834C0.24797 12.7168 0.197486 12.6233 0.1627 12.5576C0.145303 12.5247 0.131821 12.4987 0.122284 12.4802L0.110936 12.458L0.107485 12.4511L0.106316 12.4488C0.106132 12.4484 0.105519 12.4472 0.999946 12C0.105519 11.5528 0.105687 11.5525 0.105871 11.5521L0.107485 11.5489L0.110936 11.542L0.122284 11.5198C0.131821 11.5013 0.145303 11.4753 0.1627 11.4424C0.197486 11.3767 0.24797 11.2832 0.313918 11.166C0.445738 10.9316 0.639796 10.6015 0.894282 10.2075C1.40201 9.42131 2.15678 8.3706 3.14541 7.31606C5.10443 5.22644 8.10044 3 11.9999 3C15.8995 3 18.8955 5.22644 20.8545 7.31606C21.8431 8.3706 22.5979 9.42131 23.1056 10.2075C23.3601 10.6015 23.5542 10.9316 23.686 11.166C23.7519 11.2832 23.8024 11.3767 23.8372 11.4424C23.8546 11.4753 23.8681 11.5013 23.8776 11.5198L23.889 11.542L23.8924 11.5489L23.894 11.5521ZM2.57436 12.7075C2.39487 12.4296 2.24998 12.1889 2.14069 12C2.24998 11.8111 2.39487 11.5704 2.57436 11.2925C3.03538 10.5787 3.71811 9.6294 4.60448 8.68394C6.39547 6.77356 8.89945 5 11.9999 5C15.1004 5 17.6044 6.77356 19.3954 8.68394C20.2818 9.6294 20.9645 10.5787 21.4255 11.2925C21.605 11.5704 21.7499 11.8111 21.8592 12C21.7499 12.1889 21.605 12.4296 21.4255 12.7075C20.9645 13.4213 20.2818 14.3706 19.3954 15.3161C17.6044 17.2264 15.1004 19 11.9999 19C8.89945 19 6.39547 17.2264 4.60448 15.3161C3.71811 14.3706 3.03538 13.4213 2.57436 12.7075Z" fill="#2D3648"/>
<path d="M22.9999 12L23.894 11.5521C24.0348 11.8336 24.0348 12.1664 23.894 12.4479L22.9999 12Z" fill="#2D3648"/>
<path d="M0.105871 11.5521L0.999946 12L0.105519 12.4472C-0.0352448 12.1657 -0.0348926 11.8336 0.105871 11.5521Z" fill="#2D3648"/>
</svg>
