<svg width="19" height="24" viewBox="0 0 19 20" fill="none" xmlns="http://www.w3.org/2000/svg">
<path d="M8.71796 18.3814C7.58527 18.8966 6.16179 18.6537 5.18243 17.6743C4.20307 16.695 3.96019 15.2715 4.47532 14.1388" stroke="none" stroke-width="1.5" stroke-linecap="round"/>
<path d="M8.71796 18.3814C7.58527 18.8966 6.16179 18.6537 5.18243 17.6743C4.20307 16.695 3.96019 15.2715 4.47532 14.1388" stroke="none" stroke-opacity="0.2" stroke-width="1.5" stroke-linecap="round"/>
<path d="M8.71796 18.3814C7.58527 18.8966 6.16179 18.6537 5.18243 17.6743C4.20307 16.695 3.96019 15.2715 4.47532 14.1388" stroke="none" stroke-opacity="0.2" stroke-width="1.5" stroke-linecap="round"/>
<path d="M8.71796 18.3814C7.58527 18.8966 6.16179 18.6537 5.18243 17.6743C4.20307 16.695 3.96019 15.2715 4.47532 14.1388" stroke="none" stroke-opacity="0.2" stroke-width="1.5" stroke-linecap="round"/>
<path d="M7.22299 2.45291C9.82328 0.381796 13.5059 0.541793 15.7892 2.82508C18.0724 5.10837 18.2324 8.79096 16.1613 11.3913L14.2524 13.7879C13.7781 14.3834 13.4915 15.1036 13.4306 15.8532C13.3012 17.444 11.3621 18.197 10.2524 17.0873L1.52691 8.36182C0.417232 7.25214 1.17022 5.31302 2.76103 5.18366C3.51067 5.12271 4.23085 4.83612 4.82636 4.3618L7.22299 2.45291Z" stroke="none" stroke-width="1.5" stroke-linecap="round" stroke-linejoin="round"/>
<path d="M7.22299 2.45291C9.82328 0.381796 13.5059 0.541793 15.7892 2.82508C18.0724 5.10837 18.2324 8.79096 16.1613 11.3913L14.2524 13.7879C13.7781 14.3834 13.4915 15.1036 13.4306 15.8532C13.3012 17.444 11.3621 18.197 10.2524 17.0873L1.52691 8.36182C0.417232 7.25214 1.17022 5.31302 2.76103 5.18366C3.51067 5.12271 4.23085 4.83612 4.82636 4.3618L7.22299 2.45291Z" stroke="none" stroke-opacity="0.2" stroke-width="1.5" stroke-linecap="round" stroke-linejoin="round"/>
<path d="M7.22299 2.45291C9.82328 0.381796 13.5059 0.541793 15.7892 2.82508C18.0724 5.10837 18.2324 8.79096 16.1613 11.3913L14.2524 13.7879C13.7781 14.3834 13.4915 15.1036 13.4306 15.8532C13.3012 17.444 11.3621 18.197 10.2524 17.0873L1.52691 8.36182C0.417232 7.25214 1.17022 5.31302 2.76103 5.18366C3.51067 5.12271 4.23085 4.83612 4.82636 4.3618L7.22299 2.45291Z" stroke="none" stroke-opacity="0.2" stroke-width="1.5" stroke-linecap="round" stroke-linejoin="round"/>
<path d="M7.22299 2.45291C9.82328 0.381796 13.5059 0.541793 15.7892 2.82508C18.0724 5.10837 18.2324 8.79096 16.1613 11.3913L14.2524 13.7879C13.7781 14.3834 13.4915 15.1036 13.4306 15.8532C13.3012 17.444 11.3621 18.197 10.2524 17.0873L1.52691 8.36182C0.417232 7.25214 1.17022 5.31302 2.76103 5.18366C3.51067 5.12271 4.23085 4.83612 4.82636 4.3618L7.22299 2.45291Z" stroke="none" stroke-opacity="0.2" stroke-width="1.5" stroke-linecap="round" stroke-linejoin="round"/>
</svg>
