<svg width="256" height="61" viewBox="0 0 256 61" fill="none" xmlns="http://www.w3.org/2000/svg">
<path fill-rule="evenodd" clip-rule="evenodd" d="M37.6139 9.17302C34.1629 5.19107 27.7547 3.81334 22.5692 7.43798C17.4536 11.0138 14.8287 18.4558 15.5965 29.415L15.6046 29.5307L15.6192 29.6457C15.6283 29.7177 15.6382 29.7903 15.6488 29.8633C13.4547 30.4708 11.2837 30.9144 9.28774 31.1748V8.90341H1V47.5243H9.28774V39.5184C12.3017 39.1984 15.6204 38.5271 18.9295 37.5437C22.5192 42.581 29.2321 47.5367 40.356 49.1393L41.5378 40.9363C34.1077 39.8658 29.6628 37.1129 27.0832 34.4176C28.3571 33.8029 29.5837 33.14 30.7407 32.4319C34.4939 30.1347 38.0468 27.0392 39.7756 23.0382C41.6587 18.6803 41.0824 13.9437 37.8407 9.4593L37.7337 9.31116L37.6139 9.17302ZM27.3173 14.2308C25.8802 15.2353 23.5388 18.4658 23.7647 26.8162C24.6885 26.3608 25.5766 25.8757 26.4142 25.3631C29.5329 23.4543 31.4188 21.484 32.1677 19.7509C32.7478 18.4083 32.8503 16.7902 31.2476 14.4885C30.3613 13.5805 28.738 13.2377 27.3173 14.2308Z" fill="#FE75B9"/>
<path d="M22.5692 7.43798L22.3887 7.17979L22.5692 7.43798ZM37.6139 9.17302L37.3759 9.37933V9.37933L37.6139 9.17302ZM15.5965 29.415L15.2823 29.437L15.5965 29.415ZM15.6046 29.5307L15.2904 29.5527L15.291 29.5615L15.2921 29.5702L15.6046 29.5307ZM15.6192 29.6457L15.9317 29.6062L15.9317 29.6062L15.6192 29.6457ZM15.6488 29.8633L15.7328 30.1669L16.0003 30.0928L15.9605 29.8181L15.6488 29.8633ZM9.28774 31.1748H8.97273V31.5335L9.3285 31.4871L9.28774 31.1748ZM9.28774 8.90341H9.60275V8.5884H9.28774V8.90341ZM1 8.90341V8.5884H0.684991V8.90341H1ZM1 47.5243H0.684991V47.8393H1V47.5243ZM9.28774 47.5243V47.8393H9.60275V47.5243H9.28774ZM9.28774 39.5184L9.25448 39.2052L8.97273 39.2351V39.5184H9.28774ZM18.9295 37.5437L19.186 37.3608L19.0554 37.1776L18.8397 37.2417L18.9295 37.5437ZM40.356 49.1393L40.3111 49.4511L40.6229 49.496L40.6678 49.1842L40.356 49.1393ZM41.5378 40.9363L41.8496 40.9812L41.8945 40.6694L41.5827 40.6245L41.5378 40.9363ZM27.0832 34.4176L26.9463 34.1339L26.5559 34.3223L26.8556 34.6354L27.0832 34.4176ZM30.7407 32.4319L30.5762 32.1632L30.7407 32.4319ZM39.7756 23.0382L40.0648 23.1632L39.7756 23.0382ZM37.8407 9.4593L38.096 9.27475L38.096 9.27475L37.8407 9.4593ZM37.7337 9.31116L37.9889 9.12661L37.9808 9.11535L37.9717 9.10485L37.7337 9.31116ZM23.7647 26.8162L23.4498 26.8248L23.4631 27.3162L23.904 27.0988L23.7647 26.8162ZM27.3173 14.2308L27.1369 13.9726L27.3173 14.2308ZM26.4142 25.3631L26.5786 25.6318L26.4142 25.3631ZM32.1677 19.7509L32.4569 19.8758L32.4569 19.8758L32.1677 19.7509ZM31.2476 14.4885L31.5061 14.3085L31.4912 14.2872L31.473 14.2685L31.2476 14.4885ZM22.7497 7.69617C27.7935 4.17059 34.0227 5.5103 37.3759 9.37933L37.852 8.96671C34.3031 4.87183 27.716 3.45609 22.3887 7.17979L22.7497 7.69617ZM15.9108 29.393C15.1458 18.4746 17.7702 11.1768 22.7497 7.69617L22.3887 7.17979C17.137 10.8508 14.5116 18.437 15.2823 29.437L15.9108 29.393ZM15.9189 29.5087L15.9108 29.393L15.2823 29.437L15.2904 29.5527L15.9189 29.5087ZM15.9317 29.6062L15.9172 29.4911L15.2921 29.5702L15.3067 29.6853L15.9317 29.6062ZM15.9605 29.8181C15.9502 29.7469 15.9406 29.6763 15.9317 29.6062L15.3067 29.6853C15.316 29.7592 15.3262 29.8336 15.337 29.9085L15.9605 29.8181ZM9.3285 31.4871C11.3403 31.2246 13.5258 30.778 15.7328 30.1669L15.5647 29.5597C13.3837 30.1636 11.2271 30.6041 9.24699 30.8624L9.3285 31.4871ZM8.97273 8.90341V31.1748H9.60275V8.90341H8.97273ZM1 9.21842H9.28774V8.5884H1V9.21842ZM1.31501 47.5243V8.90341H0.684991V47.5243H1.31501ZM9.28774 47.2093H1V47.8393H9.28774V47.2093ZM8.97273 39.5184V47.5243H9.60275V39.5184H8.97273ZM18.8397 37.2417C15.5474 38.2201 12.2477 38.8873 9.25448 39.2052L9.32101 39.8317C12.3558 39.5094 15.6934 38.834 19.0192 37.8456L18.8397 37.2417ZM40.4009 48.8275C29.355 47.2362 22.7217 42.3224 19.186 37.3608L18.6729 37.7265C22.3167 42.8397 29.1092 47.8373 40.3111 49.4511L40.4009 48.8275ZM41.226 40.8913L40.0442 49.0944L40.6678 49.1842L41.8496 40.9812L41.226 40.8913ZM26.8556 34.6354C29.4896 37.3876 34.0017 40.1688 41.4929 41.2481L41.5827 40.6245C34.2136 39.5628 29.836 36.8383 27.3108 34.1998L26.8556 34.6354ZM30.5762 32.1632C29.4291 32.8653 28.2117 33.5232 26.9463 34.1339L27.2201 34.7013C28.5024 34.0825 29.7384 33.4147 30.9051 32.7006L30.5762 32.1632ZM39.4864 22.9133C37.7949 26.828 34.3054 29.8808 30.5762 32.1632L30.9051 32.7006C34.6824 30.3887 38.2987 27.2504 40.0648 23.1632L39.4864 22.9133ZM37.5855 9.64385C40.77 14.0491 41.3204 18.6691 39.4864 22.9133L40.0648 23.1632C41.997 18.6915 41.3949 13.8382 38.096 9.27475L37.5855 9.64385ZM37.4784 9.49571L37.5855 9.64385L38.096 9.27475L37.9889 9.12661L37.4784 9.49571ZM37.3759 9.37933L37.4956 9.51747L37.9717 9.10485L37.852 8.96671L37.3759 9.37933ZM24.0796 26.8077C23.855 18.5054 26.186 15.4059 27.4978 14.489L27.1369 13.9726C25.5744 15.0648 23.2226 18.4263 23.4498 26.8248L24.0796 26.8077ZM26.2497 25.0944C25.4212 25.6015 24.5416 26.082 23.6254 26.5337L23.904 27.0988C24.8355 26.6395 25.732 26.1499 26.5786 25.6318L26.2497 25.0944ZM31.8786 19.6259C31.1669 21.2729 29.3443 23.2004 26.2497 25.0944L26.5786 25.6318C29.7215 23.7082 31.6708 21.6951 32.4569 19.8758L31.8786 19.6259ZM30.9891 14.6685C31.7691 15.7888 32.1188 16.7205 32.2134 17.5165C32.3076 18.3095 32.1519 18.9934 31.8786 19.6259L32.4569 19.8758C32.7637 19.1658 32.9492 18.3693 32.839 17.4422C32.7292 16.5182 32.3288 15.49 31.5061 14.3085L30.9891 14.6685ZM27.4978 14.489C28.7858 13.5887 30.2382 13.9053 31.0221 14.7086L31.473 14.2685C30.4845 13.2556 28.6902 12.8868 27.1369 13.9726L27.4978 14.489Z" fill="#FE75B9"/>
<path d="M55.7224 31.5262C55.7224 32.5143 55.8934 33.4265 56.2355 34.2626C56.6156 35.0607 57.0906 35.7639 57.6607 36.372C58.2688 36.9801 58.9719 37.4551 59.7701 37.7972C60.6062 38.1393 61.4803 38.3103 62.3925 38.3103C63.3046 38.3103 64.1598 38.1393 64.9579 37.7972C65.7941 37.4551 66.4972 36.9801 67.0673 36.372C67.6754 35.7639 68.1504 35.0607 68.4925 34.2626C68.8726 33.4265 69.0626 32.5333 69.0626 31.5832C69.0626 30.671 68.8726 29.8159 68.4925 29.0178C68.1504 28.1816 67.6754 27.4595 67.0673 26.8514C66.4972 26.2433 65.7941 25.7682 64.9579 25.4262C64.1598 25.0841 63.3046 24.9131 62.3925 24.9131C61.4803 24.9131 60.6062 25.0841 59.7701 25.4262C58.9719 25.7682 58.2688 26.2433 57.6607 26.8514C57.0906 27.4595 56.6156 28.1626 56.2355 28.9607C55.8934 29.7589 55.7224 30.614 55.7224 31.5262ZM44.8336 31.4122C44.8336 29.2458 45.2707 27.2315 46.1448 25.3692C47.019 23.4688 48.2352 21.8346 49.7934 20.4664C51.3517 19.0601 53.195 17.9579 55.3233 17.1598C57.4897 16.3617 59.8461 15.9626 62.3925 15.9626C64.9009 15.9626 67.2193 16.3617 69.3476 17.1598C71.514 17.9199 73.3763 19.0031 74.9346 20.4093C76.5308 21.7776 77.766 23.4308 78.6402 25.3692C79.5143 27.2695 79.9514 29.3788 79.9514 31.6972C79.9514 34.0156 79.4953 36.1439 78.5832 38.0822C77.709 39.9826 76.4928 41.6358 74.9346 43.0421C73.3763 44.4103 71.495 45.4745 69.2906 46.2346C67.1243 46.9947 64.7679 47.3748 62.2215 47.3748C59.7131 47.3748 57.3947 46.9947 55.2663 46.2346C53.138 45.4745 51.2947 44.3913 49.7364 42.985C48.2162 41.5788 47.019 39.9065 46.1448 37.9682C45.2707 35.9919 44.8336 33.8065 44.8336 31.4122Z" fill="#FE75B9"/>
<path d="M122.887 17.0458V46.2916H112.568V17.0458H122.887ZM111.884 5.81495C111.884 5.01682 112.036 4.2757 112.34 3.59159C112.644 2.86947 113.062 2.24237 113.594 1.71028C114.126 1.17819 114.734 0.760124 115.418 0.456076C116.141 0.152026 116.901 0 117.699 0C118.497 0 119.238 0.152026 119.922 0.456076C120.644 0.760124 121.271 1.17819 121.803 1.71028C122.336 2.24237 122.754 2.86947 123.058 3.59159C123.362 4.2757 123.514 5.01682 123.514 5.81495C123.514 6.61308 123.362 7.37321 123.058 8.09533C122.754 8.77944 122.336 9.38754 121.803 9.91963C121.271 10.4517 120.644 10.8698 119.922 11.1738C119.238 11.4779 118.497 11.6299 117.699 11.6299C116.901 11.6299 116.141 11.4779 115.418 11.1738C114.734 10.8698 114.126 10.4517 113.594 9.91963C113.062 9.38754 112.644 8.77944 112.34 8.09533C112.036 7.37321 111.884 6.61308 111.884 5.81495Z" fill="#FE75B9"/>
<path d="M138.59 17.0458L145.545 32.0393L152.614 17.0458H164.13L148.909 46.2916H142.011L126.96 17.0458H138.59Z" fill="#FE75B9"/>
<path d="M178.003 17.0458V46.2916H167.684V17.0458H178.003ZM167 5.81495C167 5.01682 167.152 4.2757 167.456 3.59159C167.76 2.86947 168.178 2.24237 168.711 1.71028C169.243 1.17819 169.851 0.760124 170.535 0.456076C171.257 0.152026 172.017 0 172.815 0C173.613 0 174.354 0.152026 175.039 0.456076C175.761 0.760124 176.388 1.17819 176.92 1.71028C177.452 2.24237 177.87 2.86947 178.174 3.59159C178.478 4.2757 178.63 5.01682 178.63 5.81495C178.63 6.61308 178.478 7.37321 178.174 8.09533C177.87 8.77944 177.452 9.38754 176.92 9.91963C176.388 10.4517 175.761 10.8698 175.039 11.1738C174.354 11.4779 173.613 11.6299 172.815 11.6299C172.017 11.6299 171.257 11.4779 170.535 11.1738C169.851 10.8698 169.243 10.4517 168.711 9.91963C168.178 9.38754 167.76 8.77944 167.456 8.09533C167.152 7.37321 167 6.61308 167 5.81495Z" fill="#FE75B9"/>
<path d="M185.054 17.0458H195.373V20.7514C196.779 19.0411 198.205 17.9009 199.649 17.3308C201.093 16.7227 202.784 16.4187 204.723 16.4187C206.775 16.4187 208.523 16.7607 209.968 17.4449C211.45 18.091 212.704 19.0221 213.73 20.2383C214.566 21.2265 215.136 22.3287 215.44 23.5449C215.744 24.7611 215.896 26.1483 215.896 27.7065V46.2916H205.578V31.5262C205.578 30.0819 205.464 28.9227 205.236 28.0486C205.046 27.1364 204.685 26.4143 204.153 25.8822C203.697 25.4262 203.183 25.1031 202.613 24.9131C202.043 24.7231 201.435 24.628 200.789 24.628C199.041 24.628 197.692 25.1601 196.741 26.2243C195.829 27.2505 195.373 28.7327 195.373 30.671V46.2916H185.054V17.0458Z" fill="#FE75B9"/>
<path d="M232.49 31.5262C232.49 32.4763 232.661 33.3695 233.003 34.2056C233.345 35.0037 233.801 35.7069 234.371 36.315C234.979 36.9231 235.682 37.3981 236.48 37.7402C237.317 38.0822 238.21 38.2533 239.16 38.2533C240.072 38.2533 240.927 38.0822 241.725 37.7402C242.561 37.3981 243.265 36.9231 243.835 36.315C244.443 35.7069 244.918 35.0037 245.26 34.2056C245.64 33.3695 245.83 32.4953 245.83 31.5832C245.83 30.633 245.64 29.7589 245.26 28.9607C244.918 28.1626 244.443 27.4595 243.835 26.8514C243.227 26.2433 242.504 25.7682 241.668 25.4262C240.87 25.0841 240.034 24.9131 239.16 24.9131C238.248 24.9131 237.393 25.1031 236.594 25.4832C235.796 25.8252 235.093 26.3003 234.485 26.9084C233.877 27.4785 233.383 28.1626 233.003 28.9607C232.661 29.7589 232.49 30.614 232.49 31.5262ZM255.636 17.0458V44.2963C255.636 45.9305 255.541 47.3938 255.351 48.686C255.16 49.9782 254.894 51.1184 254.552 52.1065C254.096 53.3607 253.374 54.5199 252.386 55.5841C251.436 56.6863 250.277 57.6364 248.908 58.4346C247.54 59.2327 245.982 59.8598 244.234 60.3159C242.523 60.772 240.661 61 238.647 61C236.366 61 234.276 60.715 232.376 60.1449C230.475 59.5748 228.803 58.7766 227.359 57.7505C225.953 56.7623 224.794 55.5841 223.881 54.2159C222.969 52.8857 222.361 51.4224 222.057 49.8262H233.687C234.409 51.7645 236.043 52.7336 238.59 52.7336C240.756 52.7336 242.409 52.1255 243.55 50.9093C244.728 49.6931 245.317 48.0019 245.317 45.8355V43.0421C244.557 43.7642 243.816 44.3723 243.094 44.8664C242.409 45.3224 241.706 45.7025 240.984 46.0065C240.262 46.3106 239.502 46.5196 238.704 46.6336C237.906 46.7857 237.032 46.8617 236.081 46.8617C233.991 46.8617 232.072 46.5006 230.323 45.7785C228.575 45.0564 227.055 44.0492 225.763 42.757C224.508 41.4648 223.52 39.9255 222.798 38.1393C222.114 36.315 221.772 34.3006 221.772 32.0963C221.772 29.8539 222.152 27.7826 222.912 25.8822C223.672 23.9439 224.698 22.2717 225.991 20.8654C227.321 19.4212 228.879 18.3 230.665 17.5019C232.49 16.6657 234.466 16.2477 236.594 16.2477C240.053 16.2477 242.96 17.5399 245.317 20.1243V17.0458H255.636Z" fill="#FE75B9"/>
<path fill-rule="evenodd" clip-rule="evenodd" d="M84.5601 27.8726C84.8439 20.4289 85.8102 11.7074 86.6097 5.95044L95.9702 7.2505C95.1947 12.8339 94.2709 21.2174 94.0035 28.2326C93.8684 31.7752 93.9104 34.7555 94.1631 36.7988C94.1792 36.9289 94.1957 37.0507 94.2122 37.1646C95.5473 37.2528 97.2432 37.2782 99.1178 37.2438C102.002 37.1909 104.888 37.0085 106.637 36.8586L107.444 46.2744C105.518 46.4395 102.418 46.6351 99.2911 46.6925C96.2952 46.7474 92.8105 46.6893 90.3633 46.1999C87.4509 45.6174 86.2139 43.1802 85.7751 42.1215C85.236 40.8212 84.954 39.3308 84.7843 37.9588C84.4366 35.1471 84.4195 31.5595 84.5601 27.8726ZM94.505 38.5027C94.5037 38.4996 94.5024 38.4962 94.501 38.4927C94.544 38.5751 94.5418 38.5915 94.505 38.5027Z" fill="#FE75B9"/>
</svg>
