<svg width="182" height="149" viewBox="0 0 182 149" fill="none" xmlns="http://www.w3.org/2000/svg">
<g id="Group 1774">
<path id="Vector 200" d="M123.026 143.021C122.626 138.621 126.86 137.854 129.026 138.021C131.693 138.187 138.026 141 138.026 143.021C138.026 146 123.526 148.521 123.026 143.021Z" fill="#FE75B9"/>
<path id="Vector 199" d="M114.055 136.857C113.612 135.982 115.96 134.689 117.347 134.078C117.447 134.034 117.563 134.081 117.607 134.182L120.743 141.407C120.821 141.588 120.621 141.761 120.456 141.655C118.21 140.22 114.481 137.699 114.055 136.857Z" fill="#FE75B9"/>
<path id="Vector 197" d="M46.3382 80.5829C55.3071 76.246 71.5659 63.6733 64.8498 48.0779C56.4547 28.5838 28.3615 47.3252 31.6996 52.9026C35.0376 58.48 47.8012 45.5065 39.9293 36.5468C33.6317 29.3791 16.9442 34.8393 9.38769 38.4654" stroke="black" stroke-width="1.5" stroke-linecap="round" stroke-dasharray="3 3"/>
<path id="Vector 193" d="M155.263 47.3166C151.949 47.1025 144.457 47.5186 141 50.8962" stroke="black" stroke-width="1.5" stroke-linecap="round"/>
<path id="Vector 188" d="M45 79.2085L61 25.2085L91.5 35.7085L75 89.7085L45 79.2085Z" fill="#757575"/>
<path id="Vector 189" d="M153.5 54.7085L136.5 108.708L76 89.7085L92 36.2085L153.5 54.7085Z" fill="#E0E0E0"/>
<path id="Vector 190" d="M32 86.7085L45 79.3447L75 89.7085L63 96.7085L32 86.7085Z" fill="#BDBDBD"/>
<path id="Vector 191" d="M112.5 111.708L106 99.7085L136.5 109.208L142.5 120.708L112.5 111.708Z" fill="#EEEEEE"/>
<path id="Vector 192" d="M150 77.3804C148 63.0522 142.938 59.1803 134.538 58.3803C124.038 57.3803 105.038 60.8803 106.038 65.3803C106.838 68.9803 118.5 66.2085 125.038 65.3803C126.791 65.1582 106.5 68.7085 107 72.7085C107.397 75.8838 119.705 73.047 126.038 71.3803C127.331 71.0401 109.5 75.7085 110 79.2085C110.412 82.0913 122.371 79.047 128.038 77.3804C129.5 76.9504 114.2 81.5085 115 84.7085C115.8 87.9085 132 84.2085 134 79.7085C135.035 77.3804 131.705 75.3804 130.538 78.8804C129.371 82.3804 131.038 90.8804 142.038 94.3804C150.838 97.1804 156.705 97.547 158.538 97.3804" stroke="black" stroke-width="1.5" stroke-linecap="round"/>
<path id="Polygon 7" d="M157.63 72.7637C156.386 72.6254 155.322 73.6507 155.415 74.8989L157.407 101.85C157.551 103.797 160.113 104.406 161.117 102.731L176.135 77.6703C176.884 76.4207 176.089 74.8154 174.641 74.6545L157.63 72.7637Z" fill="#FF8E00"/>
<path id="Polygon 8" d="M149.126 39.1904C148.122 39.6992 147.735 40.9361 148.27 41.9262L156.166 56.522C157.127 58.2975 159.814 57.6937 159.922 55.6779L160.952 36.5605C161.034 35.0239 159.423 33.9734 158.051 34.6688L149.126 39.1904Z" fill="#FF8E00"/>
<path id="Vector 194" d="M62.5 29.2085L72.5 85.2085" stroke="black" stroke-width="1.5" stroke-linecap="round"/>
<path id="Vector 195" d="M87.5195 37.0039L47.4804 77.4127" stroke="black" stroke-width="1.5" stroke-linecap="round"/>
<path id="Vector 178" d="M52.037 21.7591L43.093 15.3775M56.5133 18.2756L51.1835 8.53664M62.1197 16.1301L61.6395 5.06804" stroke="black" stroke-width="1.5" stroke-linecap="round"/>
<path id="Vector 196" d="M81.6841 98.2085C72.1841 101.208 54.2841 111.308 58.6841 127.708C64.1841 148.208 94.6836 133.708 92.1836 127.708C89.6836 121.708 75.1846 132.708 81.6841 142.708C86.8837 150.708 104.184 147.708 112.184 145.208" stroke="black" stroke-width="1.5" stroke-linecap="round" stroke-dasharray="3 3"/>
<path id="Vector 198" d="M117 136C117.432 136.834 124.702 146.336 133.732 144.887C133.864 144.866 133.936 144.723 133.863 144.611C133.115 143.46 130.258 140.148 127.026 139.368C121.951 138.143 118.902 142.554 123.103 146.104C126.59 149.051 131.675 147.928 133.564 146.946" stroke="black" stroke-width="1.5" stroke-linecap="round"/>
<circle id="Ellipse 45" cx="10.5" cy="25.5" r="3.5" fill="#FE75B9"/>
<circle id="Ellipse 46" cx="2" cy="33" r="2" fill="#FE75B9"/>
</g>
</svg>
