<svg width="20" height="19" viewBox="0 0 20 19" fill="none" xmlns="http://www.w3.org/2000/svg">
<path d="M10 18.1213H19" stroke-width="1.5" stroke-linecap="square" stroke-linejoin="round"/>
<path d="M14.5 1.62132C14.8978 1.2235 15.4374 1 16 1C16.2786 1 16.5544 1.05487 16.8118 1.16148C17.0692 1.26808 17.303 1.42434 17.5 1.62132C17.697 1.8183 17.8532 2.05216 17.9598 2.30953C18.0665 2.5669 18.1213 2.84274 18.1213 3.12132C18.1213 3.3999 18.0665 3.67574 17.9598 3.93311C17.8532 4.19048 17.697 4.42434 17.5 4.62132L5.01959 17.1017C5.00677 17.1146 4.99071 17.1236 4.97313 17.128L1.16169 18.0809C1.08845 18.0992 1.02211 18.0329 1.04042 17.9596L1.99328 14.1482C1.99768 14.1306 2.00677 14.1146 2.01959 14.1017L14.5 1.62132Z" stroke-width="1.5" stroke-linecap="round"/>
</svg>