<svg width="65" height="25" viewBox="0 0 65 25" fill="none" xmlns="http://www.w3.org/2000/svg">
<path d="M10.6666 12.5H21.3333" stroke="#FF8E00" stroke-width="1.5"/>
<path d="M16 17.8334L16 7.16671" stroke="#FF8E00" stroke-width="1.5"/>
<path d="M35.7411 17.5H33.8412L33.0194 15.049H29.2922L28.4704 17.5H26.5657L30.056 7.59945H32.2508L35.7411 17.5ZM31.1147 9.62017L29.7708 13.6181H32.536L31.1921 9.62017H31.1147ZM39.3759 17.6305C38.7894 17.6305 38.2641 17.4791 37.8 17.1761C37.3359 16.8732 36.9717 16.4332 36.7074 15.8564C36.4432 15.2762 36.311 14.5898 36.311 13.797C36.311 12.9945 36.4448 12.3064 36.7123 11.7327C36.9798 11.1558 37.3455 10.7192 37.8096 10.4227C38.2769 10.1262 38.8007 9.9779 39.3808 9.9779C39.9609 9.9779 40.4137 10.1068 40.7392 10.3646C41.0679 10.6225 41.3225 10.9335 41.503 11.2977H41.5707V7.59945H43.311V17.5H41.6045V16.3301H41.503C41.055 17.1971 40.346 17.6305 39.3759 17.6305ZM39.8545 16.2044C40.2219 16.2044 40.5378 16.1045 40.802 15.9047C41.0663 15.7049 41.2677 15.4229 41.4063 15.0587C41.5449 14.6945 41.6142 14.2707 41.6142 13.7873C41.6142 13.3039 41.5449 12.8833 41.4063 12.5256C41.271 12.1678 41.0711 11.8923 40.8069 11.6989C40.5426 11.5055 40.2252 11.4088 39.8545 11.4088C39.4742 11.4088 39.1503 11.5087 38.8828 11.7086C38.6186 11.9084 38.4188 12.1888 38.2834 12.5497C38.1513 12.9075 38.0852 13.32 38.0852 13.7873C38.0852 14.2578 38.1529 14.6752 38.2882 15.0394C38.4236 15.4035 38.6234 15.6888 38.8877 15.895C39.1552 16.1013 39.4775 16.2044 39.8545 16.2044ZM47.8388 17.6305C47.2523 17.6305 46.7269 17.4791 46.2629 17.1761C45.7988 16.8732 45.4346 16.4332 45.1703 15.8564C44.906 15.2762 44.7739 14.5898 44.7739 13.797C44.7739 12.9945 44.9077 12.3064 45.1752 11.7327C45.4426 11.1558 45.8084 10.7192 46.2725 10.4227C46.7398 10.1262 47.2635 9.9779 47.8437 9.9779C48.4238 9.9779 48.8766 10.1068 49.2021 10.3646C49.5308 10.6225 49.7854 10.9335 49.9659 11.2977H50.0336V7.59945H51.7739V17.5H50.0674V16.3301H49.9659C49.5179 17.1971 48.8089 17.6305 47.8388 17.6305ZM48.3174 16.2044C48.6848 16.2044 49.0007 16.1045 49.2649 15.9047C49.5292 15.7049 49.7306 15.4229 49.8692 15.0587C50.0078 14.6945 50.0771 14.2707 50.0771 13.7873C50.0771 13.3039 50.0078 12.8833 49.8692 12.5256C49.7339 12.1678 49.534 11.8923 49.2698 11.6989C49.0055 11.5055 48.688 11.4088 48.3174 11.4088C47.9371 11.4088 47.6132 11.5087 47.3457 11.7086C47.0815 11.9084 46.8816 12.1888 46.7463 12.5497C46.6141 12.9075 46.5481 13.32 46.5481 13.7873C46.5481 14.2578 46.6158 14.6752 46.7511 15.0394C46.8865 15.4035 47.0863 15.6888 47.3506 15.895C47.6181 16.1013 47.9403 16.2044 48.3174 16.2044Z" fill="#FF8E00"/>
<rect x="0.5" y="1" width="64" height="23" rx="11.5" stroke="#FF8E00"/>
</svg>
