<svg width="20" height="20" viewBox="0 0 20 20" fill="none" xmlns="http://www.w3.org/2000/svg">
<g id="Icon16/Image">
<path id="Union" fill-rule="evenodd" clip-rule="evenodd" d="M7.82036 2.25C7.53688 2.25 7.26671 2.37032 7.07707 2.58104L5.275 4.58333H3.25C2.14543 4.58333 1.25 5.47877 1.25 6.58334V14.25C1.25 15.3546 2.14543 16.25 3.25 16.25H16.75C17.8546 16.25 18.75 15.3546 18.75 14.25V6.58333C18.75 5.47876 17.8546 4.58333 16.75 4.58333H14.725L12.9229 2.58104C12.7333 2.37032 12.4631 2.25 12.1796 2.25H7.82036ZM12.9165 9.75C12.9165 11.3608 11.6106 12.6667 9.9998 12.6667C8.38897 12.6667 7.08313 11.3608 7.08313 9.75C7.08313 8.13917 8.38897 6.83333 9.9998 6.83333C11.6106 6.83333 12.9165 8.13917 12.9165 9.75Z" fill="#BDBDBD"/>
</g>
</svg>
