<svg width="32" height="32" viewBox="0 0 32 32" fill="none" xmlns="http://www.w3.org/2000/svg">
<g id="Icon16/Image">
<path id="Union" fill-rule="evenodd" clip-rule="evenodd" d="M12.2454 3.59998C11.9619 3.59998 11.6917 3.7203 11.5021 3.93101L8.44 7.33331H4C2.89543 7.33331 2 8.22874 2 9.33331V24C2 25.1045 2.89543 26 4 26H28C29.1046 26 30 25.1045 30 24V9.33331C30 8.22874 29.1046 7.33331 28 7.33331H23.56L20.4979 3.93101C20.3083 3.7203 20.0381 3.59998 19.7546 3.59998H12.2454ZM20.6663 15.6C20.6663 18.1773 18.577 20.2666 15.9997 20.2666C13.4223 20.2666 11.333 18.1773 11.333 15.6C11.333 13.0226 13.4223 10.9333 15.9997 10.9333C18.577 10.9333 20.6663 13.0226 20.6663 15.6Z" fill="#E0E0E0"/>
</g>
</svg>
