<svg width="84" height="24" viewBox="0 0 84 24" fill="none" xmlns="http://www.w3.org/2000/svg">
<path d="M10.666 12H21.3327" stroke="#FF8E00" stroke-width="1.5"/>
<path d="M16 17.332L16 6.66536" stroke="#FF8E00" stroke-width="1.5"/>
<path d="M33.1748 7.10156H34.9658V13.5684C34.9658 15.6875 33.3525 17.1504 30.9463 17.1504C28.5264 17.1504 26.9268 15.6875 26.9268 13.5684V7.10156H28.7041V13.418C28.7041 14.6621 29.5791 15.5645 30.9463 15.5645C32.3135 15.5645 33.1748 14.6621 33.1748 13.418V7.10156ZM36.7158 19.7891V9.57617H38.4248V10.793H38.5342C38.8076 10.2598 39.3545 9.48047 40.667 9.48047C42.376 9.48047 43.7295 10.8203 43.7295 13.2949C43.7295 15.7422 42.417 17.1367 40.667 17.1367C39.3818 17.1367 38.8076 16.3711 38.5342 15.8242H38.4658V19.7891H36.7158ZM38.4248 13.2812C38.4248 14.7305 39.0537 15.7012 40.1885 15.7012C41.3369 15.7012 41.9521 14.6895 41.9521 13.2812C41.9521 11.9004 41.3506 10.9023 40.1885 10.9023C39.0537 10.9023 38.4248 11.8457 38.4248 13.2812ZM46.8467 7.10156V17H45.0967V7.10156H46.8467ZM51.7549 17.1504C49.5947 17.1504 48.2002 15.6191 48.2002 13.3223C48.2002 11.0117 49.5947 9.48047 51.7549 9.48047C53.9287 9.48047 55.3096 11.0117 55.3096 13.3223C55.3096 15.6191 53.9287 17.1504 51.7549 17.1504ZM51.7686 15.7559C52.958 15.7559 53.5459 14.6758 53.5459 13.3086C53.5459 11.9551 52.958 10.8613 51.7686 10.8613C50.5518 10.8613 49.9639 11.9551 49.9639 13.3086C49.9639 14.6758 50.5518 15.7559 51.7686 15.7559ZM56.3213 14.9082C56.3213 13.2402 57.7021 12.748 59.083 12.666C59.5957 12.6318 60.6621 12.5703 60.9834 12.5566V11.9688C60.9834 11.2305 60.5049 10.8066 59.6436 10.8066C58.8643 10.8066 58.3857 11.1621 58.249 11.6953H56.5674C56.6904 10.4375 57.8252 9.48047 59.6846 9.48047C61.0928 9.48047 62.7197 10.0547 62.7197 12.0371V17H61.0518V15.9746H60.9971C60.6689 16.6035 59.9717 17.1504 58.8096 17.1504C57.3877 17.1504 56.3213 16.3711 56.3213 14.9082ZM58.0029 14.8945C58.0029 15.5371 58.5225 15.8652 59.2607 15.8652C60.3135 15.8652 60.9971 15.168 60.9971 14.334V13.7188C60.6758 13.7393 59.7051 13.8076 59.3564 13.8281C58.5225 13.8965 58.0029 14.2383 58.0029 14.8945ZM67.1221 17.1367C65.3721 17.1367 64.0596 15.7422 64.0596 13.2949C64.0596 10.8203 65.4131 9.48047 67.1357 9.48047C68.4482 9.48047 68.9951 10.2598 69.2549 10.793H69.3232V7.10156H71.0596V17H69.3506V15.8242H69.2549C68.9814 16.3711 68.4072 17.1367 67.1221 17.1367ZM67.6006 15.7012C68.7217 15.7012 69.3643 14.7305 69.3643 13.2812C69.3643 11.8457 68.7354 10.9023 67.6006 10.9023C66.4385 10.9023 65.8369 11.9004 65.8369 13.2812C65.8369 14.6895 66.4521 15.7012 67.6006 15.7012Z" fill="#FF8E00"/>
<rect x="0.5" y="0.5" width="83" height="23" rx="11.5" stroke="#FF8E00"/>
</svg>
